<svg xmlns="http://www.w3.org/2000/svg" data-name="Layer 1" viewBox="0 0 974.26 313.54"><path d="M947.76 126.55c2.36-1.9 4.6-3.95 6.69-6.14 12.77-13.31 19.81-30.8 19.81-49.26s-7.04-35.94-19.81-49.26a70.838 70.838 0 0 0-22.96-16C922.52 1.98 912.97 0 903.11 0h-84.66c-6.49 0-12.41 4.09-14.72 10.17-.03.08-.06.15-.08.23l-.27.81-4.28 12.82-31.13 93.38c-17.08-10.94-36.71-16.69-57.23-16.69-14.36 0-28.3 2.82-41.42 8.37-12.67 5.36-24.05 13.04-33.82 22.81-9.78 9.77-17.45 21.15-22.81 33.82-5.55 13.12-8.37 27.06-8.37 41.42 0 4.84.33 9.68.98 14.46h-80.33l67.07-201.2c.03-.07.71-3.15.71-4.65 0-8.68-7.07-15.75-15.76-15.75-6.53 0-12.37 4.04-14.7 10.11-.09.19-74.21 222.5-74.21 222.5-.04.13-.73 3.25-.73 4.73 0 8.48 6.82 15.48 15.27 15.75.12 0 .24.01.37.01h111.76c17.66 36.83 54.93 60.43 95.98 60.43s76.93-22.72 94.96-58.37l9.22 27.75c.09.26.19.51.31.75 2.43 5.83 8.19 9.69 14.53 9.69 8.69 0 15.76-7.06 15.76-15.75 0-1.56-.23-3.11-.69-4.6-.02-.06-.04-.11-.06-.17l-.06-.18-6.51-19.56h64.93c9.85 0 19.39-1.99 28.36-5.9 8.65-3.77 16.37-9.16 22.94-16 12.77-13.31 19.81-30.81 19.81-49.26s-7.04-35.94-19.81-49.26a72.119 72.119 0 0 0-6.69-6.14ZM710.75 282.06c-24.06 0-45.46-11.34-59.17-28.96h49.12c8.68-.01 15.74-7.08 15.74-15.76s-7.07-15.75-15.75-15.75h-63.46a74.95 74.95 0 0 1-1.4-14.46c0-41.38 33.55-74.93 74.93-74.93s74.93 33.55 74.93 74.93-33.55 74.93-74.93 74.93Zm192.38-60.47h-75.39l-15.68-47.1-.71-2.15s-.01-.04-.02-.06c-3.72-10.75-9.14-20.8-16.11-29.89l-.08-.09h107.98c21.86 0 39.64 17.78 39.64 39.64s-17.78 39.64-39.63 39.65Zm-.01-110.8H803.4l26.43-79.29H903.14c21.85.01 39.61 17.79 39.61 39.64s-17.78 39.65-39.64 39.65Zm-414.05-88.9a70.877 70.877 0 0 0-22.84-15.95C457.38 2.07 447.97.08 438.25 0h-83.58c-6.72 0-12.7 4.28-14.89 10.65 0 0 0 .02-.01.03l-.13.38-35.51 106.51c-17.13-11.05-36.84-16.85-57.47-16.85-14.36 0-28.29 2.82-41.42 8.37-12.67 5.36-24.05 13.04-33.82 22.81s-17.45 21.15-22.8 33.82c-5.55 13.12-8.37 27.06-8.37 41.42 0 4.84.33 9.68.98 14.46h-14.69c-19.16 0-37.63-5.68-53.41-16.42-15.41-10.48-27.31-25.1-34.42-42.25-4.79-11.55-7.22-23.79-7.22-36.38 0-.65.01-1.35.03-2.17.43-19.18 6.56-37.56 17.72-53.13 9.07-12.65 21.21-22.99 35.13-29.89 13.18-6.53 27.37-9.85 42.16-9.85h110.06c8.68-.01 15.73-7.08 15.73-15.76S245.25 0 236.57 0H126.52c-20.39 0-40.67 4.97-58.63 14.39A126.911 126.911 0 0 0 18.8 60.12C6.51 80.04 0 103.01 0 126.55c0 13.97 2.26 27.7 6.72 40.8 4.4 12.94 10.87 25.05 19.23 35.98a126.59 126.59 0 0 0 28.16 27c21.31 14.9 46.35 22.78 72.44 22.78h24.14c17.66 36.83 54.93 60.43 95.98 60.43 22.78 0 44.51-7.1 62.83-20.52 8.82-6.46 16.56-14.2 23.03-23.02 3.45-4.7 6.49-9.66 9.11-14.82l9.22 27.75c.08.24.17.47.28.69 2.42 5.86 8.2 9.76 14.57 9.76 8.68 0 15.75-7.06 15.75-15.75 0-1.57-.23-3.12-.69-4.6-.02-.06-.03-.11-.06-.17l-.06-.18-32.68-98.17-.72-2.15s-.01-.04-.02-.06a105.883 105.883 0 0 0-16.11-29.89c-.03-.03-.05-.06-.08-.09h61.53l33.45 100.35c.09.26.19.51.31.75 2.43 5.83 8.19 9.7 14.53 9.7 8.69 0 15.76-7.07 15.76-15.76 0-1.56-.75-4.81-.75-4.81-.02-.04-30.09-90.23-30.09-90.23h11.94c9.86 0 19.41-1.98 28.38-5.89 8.67-3.77 16.39-9.16 22.96-16.01 12.78-13.31 19.82-30.8 19.82-49.26s-7.04-35.94-19.82-49.26Zm-242.4 260.17c-24.06 0-45.46-11.34-59.17-28.96h49.12c8.68-.01 15.73-7.08 15.73-15.76s-7.07-15.75-15.75-15.75h-63.46a74.95 74.95 0 0 1-1.4-14.46c0-41.38 33.55-74.93 74.93-74.93s74.93 33.55 74.93 74.93-33.55 74.93-74.93 74.93Zm191.06-171.27h-98.12l3.67-11.02 10.61-31.85 12.15-36.42h71.74c21.83.03 39.59 17.8 39.59 39.64s-17.78 39.65-39.64 39.65Z" style="fill:#07f;stroke-width:0"/></svg>